<?xml version="1.0" standalone="no"?>
<!DOCTYPE svg PUBLIC "-//W3C//DTD SVG 20010904//EN"
 "http://www.w3.org/TR/2001/REC-SVG-20010904/DTD/svg10.dtd">
<svg version="1.0" xmlns="http://www.w3.org/2000/svg"
 width="256.000000pt" height="256.000000pt" viewBox="0 0 256.000000 256.000000"
 preserveAspectRatio="xMidYMid meet">
<metadata>
Created by potrace 1.11, written by Peter Selinger 2001-2013
</metadata>
<g transform="translate(0.000000,256.000000) scale(0.100000,-0.100000)"
fill="#000000" stroke="none">
<path d="M161 2447 c-13 -6 -34 -25 -45 -40 -21 -28 -21 -38 -24 -595 -2 -367
1 -579 7 -602 8 -27 136 -161 563 -588 l553 -552 60 0 60 0 562 563 563 562 0
589 c0 526 -2 591 -16 616 -32 53 -58 60 -221 60 -164 0 -184 -6 -220 -59
l-23 -34 0 -496 -1 -496 -353 -347 -353 -347 -351 352 -352 352 0 495 c-1 535
0 524 -56 561 -25 16 -47 19 -179 19 -99 0 -158 -4 -174 -13z"/>
<path d="M1813 2343 c-44 -56 -273 -390 -273 -397 0 -4 18 -29 39 -56 113
-143 100 -342 -31 -473 -170 -170 -458 -121 -569 96 l-31 62 5 -46 c10 -73 43
-149 91 -208 25 -30 42 -59 38 -65 -3 -6 -7 -28 -7 -48 -1 -43 -32 -83 -73
-93 -25 -6 -25 -7 29 -61 29 -30 59 -54 67 -54 22 0 61 50 68 87 3 18 1 54 -6
79 -7 24 -11 46 -9 49 2 2 36 -5 74 -16 89 -26 195 -21 280 11 84 32 183 131
215 215 46 123 34 267 -31 370 -16 25 -29 56 -29 68 1 12 52 96 115 187 l115
165 0 76 c0 61 -3 78 -16 83 -26 10 -31 7 -61 -31z"/>
<path d="M1220 1891 c-129 -45 -194 -205 -134 -323 8 -16 17 -28 20 -28 18 0
54 36 54 54 1 61 65 143 132 166 30 10 89 75 104 114 12 32 -102 43 -176 17z"/>
<path d="M1401 1752 c-41 -61 -68 -92 -80 -92 -42 0 -42 -69 0 -104 52 -44 90
-33 140 40 22 33 36 44 49 41 43 -11 26 116 -23 177 l-24 30 -62 -92z"/>
<path d="M1270 1491 c0 -11 -3 -26 -6 -35 -8 -20 17 -30 51 -22 32 8 32 21 -1
51 -32 30 -44 31 -44 6z"/>
</g>
</svg>
